<?xml version="1.0" encoding="UTF-8"?>
<svg xmlns="http://www.w3.org/2000/svg" id="Layer_1" data-name="Layer 1" viewBox="0 0 240 160">
  <defs>
    <style>.cls-1{fill-rule:evenodd;}</style>
  </defs>
  <title>company-bl-sap</title>
  <path class="cls-1" d="M113.91671,72.92008l-3.269,10.31607a9.42181,9.42181,0,0,0,3.3046.57709,9.69239,9.69239,0,0,0,3.2392-.54879l-3.21288-10.34437Z"></path>
  <path class="cls-1" d="M138.39838,69.57443h-2.27267V77.887h2.27267c3.03038,0,5.448-1.00845,5.448-4.21136C143.84637,70.58148,141.42876,69.57443,138.39838,69.57443Z"></path>
  <path class="cls-1" d="M75.60418,53.08v51.84H128.565l51.83082-51.84Zm63.8532,31.89867h-3.33167v9.90246H120.84434l-1.51585-4.7359a17.31036,17.31036,0,0,1-5.37622.82582,17.09635,17.09635,0,0,1-5.50754-.87275L106.872,94.88113H97.50112l1.03539-2.7631c-.12427.10951-.24438.21884-.37867.32554a14.08783,14.08783,0,0,1-8.87542,2.97616l-.53591.0058a23.82216,23.82216,0,0,1-11.677-3.10711l3.18594-6.3276c3.45173,2.03941,5.61916,2.49715,8.54082,2.436a4.53412,4.53412,0,0,0,3.32437-1.04168,2.43033,2.43033,0,0,0,.6794-1.61051c.02707-1.64584-2.31038-2.41629-5.17425-3.30311a24.1015,24.1015,0,0,1-7.01434-3.20871,8.07445,8.07445,0,0,1-3.54194-7.201,8.70285,8.70285,0,0,1,2.4681-6.01717c2.26775-2.34457,5.927-3.76734,10.31748-3.76734h.022a27.89417,27.89417,0,0,1,11.68559,2.76591l-3.584,6.24041a16.87,16.87,0,0,0-7.54936-2.03484c-3.08848-.16611-4.647.93955-4.66981,2.13082-.02764,1.45108,2.92166,2.76363,5.70024,3.65625,4.2093,1.338,9.5592,3.12486,10.3786,8.297l7.6936-20.51191h8.93452l9.01121,24.5257V62.82092l10.31528.00633c9.85693,0,14.48758,3.51509,14.48758,11.17318C152.28053,80.87523,147.51629,84.97867,139.45738,84.97867Z"></path>
</svg>
